# xmcd
#
# Track frame offsets:
#	151
#	13203
#	28626
#	45755
#	62826
#	79637
#	96667
#	109972
#	125000
#	142373
#	160146
#	176245
#	193919
#	211738
#	230918
#
# Disc length: 3287 seconds
#
# Revision: 0
# Processed by: cddbd v1.4PL0 Copyright (c) Steve Scherf et al.
# Submitted via: dBpowerAMP V4.0
#
DISCID=e00cd50f
DTITLE=Santana -  Fiesta 2
DYEAR=2001
DGENRE=Latino Americano
TTITLE0=No One To Depend On
TTITLE1=She's Not There 
TTITLE2=I Love You Much Too Much 
TTITLE3=Dance Sister Dance
TTITLE4=Revelation
TTITLE5=Guajira 
TTITLE6=Life is A Lady
TTITLE7=Everybody's Everything
TTITLE8=Bella
TTITLE9=Changes
TTITLE10=American Gypsy
TTITLE11=Tales of Kilimanjaro
TTITLE12=One Chain 
TTITLE13=Hope You're Feeling Better
TTITLE14=Carlo'S Fiesta
EXTD=
EXTT0=
EXTT1=
EXTT2=
EXTT3=
EXTT4=
EXTT5=
EXTT6=
EXTT7=
EXTT8=
EXTT9=
EXTT10=
EXTT11=
EXTT12=
EXTT13=
EXTT14=
PLAYORDER=
